<svg width="48" height="48" viewBox="0 0 48 48" fill="none" xmlns="http://www.w3.org/2000/svg">
<path d="M23 44C19.9333 44 17.3333 42.9333 15.2 40.8C13.0667 38.6667 12 36.0667 12 33V12C12 9.8 12.7833 7.91667 14.35 6.35C15.9167 4.78333 17.8 4 20 4C22.2 4 24.0833 4.78333 25.65 6.35C27.2167 7.91667 28 9.8 28 12V31C28 32.4 27.5167 33.5833 26.55 34.55C25.5833 35.5167 24.4 36 23 36C21.6 36 20.4167 35.5167 19.45 34.55C18.4833 33.5833 18 32.4 18 31V12H21V31C21 31.5667 21.1917 32.0417 21.575 32.425C21.9583 32.8083 22.4333 33 23 33C23.5667 33 24.0417 32.8083 24.425 32.425C24.8083 32.0417 25 31.5667 25 31V12C25 10.6 24.5167 9.41667 23.55 8.45C22.5833 7.48333 21.4 7 20 7C18.6 7 17.4167 7.48333 16.45 8.45C15.4833 9.41667 15 10.6 15 12V33C15 35.2 15.7833 37.0833 17.35 38.65C18.9167 40.2167 20.8 41 23 41C25.2 41 27.0833 40.2167 28.65 38.65C30.2167 37.0833 31 35.2 31 33V12H34V33C34 36.0667 32.9333 38.6667 30.8 40.8C28.6667 42.9333 26.0667 44 23 44Z" fill="#1D1B20"/>
</svg>
