<svg width="24" height="24" viewBox="0 0 24 24" fill="none" xmlns="http://www.w3.org/2000/svg">
<path d="M10.7499 2.45007L10.2665 1.87658L10.2624 1.88012L10.7499 2.45007ZM13.2599 2.45007L12.7684 3.01658L12.7727 3.02027L13.2599 2.45007ZM14.8399 3.80007L14.3526 4.37032L14.3597 4.37623L14.8399 3.80007ZM20.1999 9.15007L19.6237 9.63024L19.6297 9.63727L20.1999 9.15007ZM21.5499 10.7301L22.1234 10.2467L22.1201 10.2429L21.5499 10.7301ZM21.5499 13.2401L20.9834 12.7485L20.9797 12.7529L21.5499 13.2401ZM20.1999 14.8201L19.6296 14.3328L19.6237 14.3399L20.1999 14.8201ZM14.8499 20.1701L14.3697 19.5939L14.3627 19.5999L14.8499 20.1701ZM13.2699 21.5201L13.7532 22.0936L13.7571 22.0903L13.2699 21.5201ZM10.7599 21.5201L11.2514 20.9536L11.2471 20.9499L10.7599 21.5201ZM9.17988 20.1701L9.66712 19.5998L9.66002 19.5939L9.17988 20.1701ZM3.78988 14.8201L3.21815 15.3055L3.22183 15.3098L3.78988 14.8201ZM2.43988 13.2301L1.86576 13.7127L1.86816 13.7155L2.43988 13.2301ZM2.43988 10.7301L1.86816 10.2446L1.86577 10.2475L2.43988 10.7301ZM3.78988 9.14007L4.36163 9.62551L4.36605 9.62021L3.78988 9.14007ZM9.15988 3.81007L9.64006 4.38628L9.64739 4.38002L9.15988 3.81007ZM11.9999 8.06007L12.6853 7.75563H11.3145L11.9999 8.06007ZM13.7499 14.0601C14.1641 14.0601 14.4999 13.7243 14.4999 13.3101C14.4999 12.8959 14.1641 12.5601 13.7499 12.5601V14.0601ZM10.2499 12.5601C9.83567 12.5601 9.49988 12.8959 9.49988 13.3101C9.49988 13.7243 9.83567 14.0601 10.2499 14.0601V12.5601ZM11.2332 3.02354C11.6581 2.66543 12.3744 2.67472 12.7684 3.01656L13.7514 1.88358C12.7854 1.04542 11.2417 1.0547 10.2665 1.8766L11.2332 3.02354ZM12.7727 3.02027L14.3527 4.37027L15.3271 3.22986L13.7471 1.87986L12.7727 3.02027ZM14.3597 4.37623C14.5964 4.57347 14.8984 4.72573 15.1808 4.82855C15.4633 4.93142 15.7955 5.01007 16.1099 5.01007V3.51007C16.0243 3.51007 15.8715 3.48372 15.694 3.41909C15.5164 3.35441 15.3833 3.27666 15.32 3.2239L14.3597 4.37623ZM16.1099 5.01007H17.8099V3.51007H16.1099V5.01007ZM17.8099 5.01007C18.4557 5.01007 18.9899 5.54428 18.9899 6.19007H20.4899C20.4899 4.71585 19.2841 3.51007 17.8099 3.51007V5.01007ZM18.9899 6.19007V7.89007H20.4899V6.19007H18.9899ZM18.9899 7.89007C18.9899 8.20528 19.0689 8.53575 19.1723 8.81667C19.2759 9.09796 19.4282 9.39561 19.6237 9.63021L20.7761 8.66993C20.7215 8.60453 20.6439 8.47218 20.58 8.29847C20.5159 8.12438 20.4899 7.97486 20.4899 7.89007H18.9899ZM19.6297 9.63727L20.9797 11.2173L22.1201 10.2429L20.7701 8.66287L19.6297 9.63727ZM20.9764 11.2134C21.3345 11.6383 21.3252 12.3546 20.9834 12.7486L22.1164 13.7316C22.9545 12.7656 22.9452 11.2218 22.1234 10.2467L20.9764 11.2134ZM20.9797 12.7529L19.6297 14.3329L20.7701 15.3073L22.1201 13.7273L20.9797 12.7529ZM19.6237 14.3399C19.4282 14.5745 19.2759 14.8722 19.1723 15.1535C19.0689 15.4344 18.9899 15.7649 18.9899 16.0801H20.4899C20.4899 15.9953 20.5159 15.8458 20.58 15.6717C20.6439 15.498 20.7215 15.3656 20.7761 15.3002L19.6237 14.3399ZM18.9899 16.0801V17.7801H20.4899V16.0801H18.9899ZM18.9899 17.7801C18.9899 18.4259 18.4557 18.9601 17.8099 18.9601V20.4601C19.2841 20.4601 20.4899 19.2543 20.4899 17.7801H18.9899ZM17.8099 18.9601H16.1099V20.4601H17.8099V18.9601ZM16.1099 18.9601C15.7947 18.9601 15.4642 19.0391 15.1833 19.1425C14.902 19.246 14.6043 19.3984 14.3697 19.5939L15.33 20.7462C15.3954 20.6917 15.5278 20.6141 15.7015 20.5501C15.8756 20.4861 16.0251 20.4601 16.1099 20.4601V18.9601ZM14.3627 19.5999L12.7827 20.9499L13.7571 22.0903L15.3371 20.7403L14.3627 19.5999ZM12.7865 20.9466C12.3617 21.3047 11.6454 21.2954 11.2514 20.9536L10.2684 22.0866C11.2344 22.9247 12.7781 22.9154 13.7532 22.0935L12.7865 20.9466ZM11.2471 20.9499L9.66708 19.5999L8.69268 20.7403L10.2727 22.0903L11.2471 20.9499ZM9.66002 19.5939C9.42353 19.3968 9.12191 19.2447 8.84149 19.142C8.56162 19.0396 8.23108 18.9601 7.91988 18.9601V20.4601C7.99868 20.4601 8.14815 20.4856 8.32578 20.5506C8.50286 20.6154 8.63623 20.6933 8.69974 20.7462L9.66002 19.5939ZM7.91988 18.9601H6.16988V20.4601H7.91988V18.9601ZM6.16988 18.9601C5.5241 18.9601 4.98988 18.4259 4.98988 17.7801H3.48988C3.48988 19.2543 4.69567 20.4601 6.16988 20.4601V18.9601ZM4.98988 17.7801V16.0701H3.48988V17.7801H4.98988ZM4.98988 16.0701C4.98988 15.7641 4.91529 15.4363 4.81494 15.1553C4.71537 14.8765 4.56384 14.5692 4.35794 14.3304L3.22183 15.3098C3.26592 15.3609 3.3394 15.4836 3.40233 15.6598C3.46447 15.8338 3.48988 15.986 3.48988 16.0701H4.98988ZM4.3616 14.3346L3.0116 12.7446L1.86816 13.7155L3.21816 15.3055L4.3616 14.3346ZM3.014 12.7475C2.66851 12.3365 2.66851 11.6237 3.014 11.2127L1.86577 10.2475C1.05125 11.2165 1.05125 12.7437 1.86577 13.7127L3.014 12.7475ZM3.0116 11.2155L4.3616 9.62549L3.21816 8.65465L1.86816 10.2446L3.0116 11.2155ZM4.36605 9.62021C4.56429 9.38232 4.71421 9.08158 4.8145 8.80231C4.91491 8.52269 4.98988 8.19689 4.98988 7.89007H3.48988C3.48988 7.97325 3.46485 8.12244 3.40277 8.29533C3.34056 8.46856 3.26548 8.59781 3.21372 8.65993L4.36605 9.62021ZM4.98988 7.89007V6.20007H3.48988V7.89007H4.98988ZM4.98988 6.20007C4.98988 5.55428 5.5241 5.02007 6.16988 5.02007V3.52007C4.69567 3.52007 3.48988 4.72585 3.48988 6.20007H4.98988ZM6.16988 5.02007H7.89988V3.52007H6.16988V5.02007ZM7.89988 5.02007C8.2151 5.02007 8.54557 4.94106 8.82648 4.83764C9.10777 4.73409 9.40542 4.58173 9.64002 4.38623L8.67974 3.2339C8.61434 3.2884 8.48199 3.36605 8.30828 3.42999C8.1342 3.49408 7.98467 3.52007 7.89988 3.52007V5.02007ZM9.64739 4.38002L11.2374 3.02002L10.2624 1.88012L8.67238 3.24012L9.64739 4.38002ZM9.18531 16.2445L12.6853 8.36451L11.3145 7.75563L7.81445 15.6356L9.18531 16.2445ZM11.3145 8.36451L14.8145 16.2445L16.1853 15.6356L12.6853 7.75563L11.3145 8.36451ZM13.7499 12.5601H10.2499V14.0601H13.7499V12.5601Z" fill="#292D32"/>
</svg>
