<svg width="48" height="48" viewBox="0 0 48 48" fill="none" xmlns="http://www.w3.org/2000/svg">
<path d="M46 7.99991V19.9999M46 19.9999H34M46 19.9999L36.72 11.2799C34.5705 9.12933 31.9113 7.55832 28.9904 6.71345C26.0695 5.86859 22.9822 5.77741 20.0166 6.44842C17.0509 7.11944 14.3036 8.53077 12.0309 10.5507C9.75827 12.5707 8.03434 15.1335 7.02 17.9999M2 39.9999V27.9999M2 27.9999H14M2 27.9999L11.28 36.7199C13.4295 38.8705 16.0887 40.4415 19.0096 41.2864C21.9305 42.1312 25.0178 42.2224 27.9834 41.5514C30.9491 40.8804 33.6964 39.469 35.9691 37.4491C38.2417 35.4291 39.9657 32.8663 40.98 29.9999" stroke="#1E1E1E" stroke-width="4" stroke-linecap="round" stroke-linejoin="round"/>
</svg>
