<?xml version="1.0" encoding="UTF-8"?>
<svg version="1.1" xmlns="http://www.w3.org/2000/svg" width="512" height="512">
<path d="M0 0 C7.87555505 5.49516221 11.99353043 11.98059129 15 21 C15.61504989 29.97367866 16.01516304 38.17948014 11 46 C10.5875 46.69480469 10.175 47.38960937 9.75 48.10546875 C6.01296384 53.7641059 1.13438896 57.19043041 -5 60 C-7.475 60.495 -7.475 60.495 -10 61 C-10 70.57 -10 80.14 -10 90 C-6.00640381 89.9685791 -6.00640381 89.9685791 -1.93212891 89.93652344 C6.93256839 89.86980214 15.79727773 89.82588607 24.66216087 89.79275131 C30.02914246 89.77200816 35.39586357 89.7439375 40.76269531 89.69824219 C45.95637136 89.65430543 51.14979923 89.63076354 56.343647 89.62049103 C58.31048099 89.61318446 60.27730371 89.59892085 62.24403 89.57707977 C90.1127566 89.28031786 113.79221707 96.33522959 134.25 116.1640625 C148.18011308 130.52949161 158.26842075 151.6947668 158.0625 171.875 C158.05347656 173.02742187 158.04445313 174.17984375 158.03515625 175.3671875 C158.01775391 176.67042969 158.01775391 176.67042969 158 178 C158.64960693 177.97905273 159.29921387 177.95810547 159.96850586 177.93652344 C162.95800833 177.85254417 165.94726158 177.801084 168.9375 177.75 C169.95908203 177.71648437 170.98066406 177.68296875 172.03320312 177.6484375 C180.27298498 177.54313677 186.38578055 179.02830845 192.8125 184.3125 C200.00191296 193.14520735 200.1559815 201.21686513 200.16796875 212.3046875 C200.17129715 213.38324005 200.17462555 214.4617926 200.17805481 215.57302856 C200.18310172 217.84734676 200.18546383 220.12167231 200.18530273 222.39599609 C200.18748836 225.85657058 200.20566583 229.31682559 200.22460938 232.77734375 C200.22754402 234.99479058 200.22952834 237.21223892 200.23046875 239.4296875 C200.23765427 240.45496552 200.24483978 241.48024353 200.25224304 242.53659058 C200.2217658 252.22236646 199.42230229 260.375373 192.4296875 267.62890625 C185.22841827 274.32963883 177.99880562 274.28462521 168.5625 274.125 C167.54478516 274.11597656 166.52707031 274.10695313 165.47851562 274.09765625 C162.98542844 274.07424698 160.49284141 274.041457 158 274 C158.04640625 274.74121094 158.0928125 275.48242188 158.140625 276.24609375 C158.82565747 296.23436259 151.35220952 314.46696399 139 330 C138.35804688 330.81726563 137.71609375 331.63453125 137.0546875 332.4765625 C122.78142948 349.48860066 101.80967229 359.33969931 80 362 C77.35566963 362.07850435 74.74032589 362.11754754 72.09765625 362.09765625 C71.3750914 362.0962413 70.65252655 362.09482635 69.9080658 362.09336853 C67.62616635 362.08782225 65.34436921 362.0752802 63.0625 362.0625 C61.50455872 362.05747804 59.94661588 362.05291636 58.38867188 362.04882812 C54.59237789 362.03872623 50.79630191 362.01914102 47 362 C47 367.28 47 372.56 47 378 C49.95018066 377.98428955 49.95018066 377.98428955 52.95996094 377.96826172 C59.5017607 377.93584352 66.04354127 377.91295467 72.58539963 377.89637566 C76.54672536 377.88599539 80.50796314 377.87194317 84.46923828 377.84912109 C88.30126036 377.82718508 92.13319854 377.81538824 95.96527863 377.81024551 C97.41790332 377.80658662 98.8705241 377.7994433 100.32311249 377.78853989 C117.09787082 377.66778043 132.31960938 379.29276839 145 391.3125 C155.25143849 402.57383857 158.54049332 414.40983789 158.4375 429.4375 C158.45748047 430.49904297 158.47746094 431.56058594 158.49804688 432.65429688 C158.49740234 433.67458984 158.49675781 434.69488281 158.49609375 435.74609375 C158.49794678 436.66060303 158.4997998 437.5751123 158.50170898 438.51733398 C157.84387582 441.7725678 156.59510614 442.98837408 154 445 C153.01 445 152.02 445 151 445 C151 451.27 151 457.54 151 464 C152.65 464.66 154.3 465.32 156 466 C158.45763886 469.68645829 158.32305499 472.53949866 158.3359375 476.80859375 C158.3425943 477.57172379 158.3492511 478.33485382 158.35610962 479.12110901 C158.36622807 480.73411653 158.37092689 482.34716585 158.37060547 483.96020508 C158.37497844 486.42534466 158.41130219 488.88869287 158.44921875 491.35351562 C158.45508722 492.92186889 158.45905641 494.49023064 158.4609375 496.05859375 C158.47530853 496.79411972 158.48967957 497.52964569 158.50448608 498.28746033 C158.47543587 501.54852527 158.33488677 503.5574345 156.33937645 506.19457668 C153.3800756 508.47842918 151.79739563 508.50195809 148.08413696 508.50615788 C146.8664179 508.51720556 145.64869884 508.52825325 144.39407921 508.53963572 C143.04087482 508.53167822 141.68767262 508.52334052 140.33447266 508.5146637 C138.89843341 508.51998718 137.46239973 508.52705172 136.02637672 508.53571075 C132.07526971 508.55439146 128.12453613 508.54801465 124.17341328 508.53755772 C119.91430171 508.53058106 115.65526804 508.54655189 111.3961792 508.55955505 C103.05067015 508.5812257 94.7052973 508.5810604 86.35976934 508.57292951 C79.57880173 508.56663645 72.79787392 508.56776016 66.01690674 508.57420158 C65.05277788 508.57510324 64.08864902 508.57600489 63.09530413 508.57693387 C61.13685718 508.57878502 59.17841024 508.58064758 57.21996331 508.58252143 C38.8441561 508.59911042 20.46842561 508.59037118 2.092623 508.57353585 C-14.73038947 508.55883617 -31.55322337 508.57346913 -48.37621284 508.60230602 C-65.63844774 508.63167614 -82.90060016 508.64267938 -100.16285896 508.63312382 C-102.11420821 508.63210123 -104.06555747 508.63110662 -106.01690674 508.6301403 C-107.4571581 508.62942572 -107.4571581 508.62942572 -108.92650545 508.6286967 C-115.70142189 508.62652951 -122.4762605 508.63635277 -129.25115967 508.65091133 C-137.5045636 508.66839921 -145.75773978 508.6683684 -154.01113462 508.64555968 C-158.22435191 508.63438536 -162.43716739 508.63132657 -166.65036774 508.64986038 C-170.50449947 508.6665969 -174.35787688 508.66040831 -178.21195912 508.63564359 C-179.60893715 508.63073725 -181.00597525 508.63433847 -182.40290332 508.64713103 C-184.29659206 508.66322634 -186.19047835 508.64572974 -188.08413696 508.62641239 C-189.13759119 508.6261427 -190.19104542 508.62587301 -191.2764225 508.62559515 C-194 508 -194 508 -196.3384161 505.69269222 C-198.54657507 502.11424368 -198.55438101 498.99049028 -198.50170898 494.91186523 C-198.50711197 494.11111069 -198.51251495 493.31035614 -198.51808167 492.4853363 C-198.53056835 489.84271037 -198.51406845 487.20117491 -198.49609375 484.55859375 C-198.49624885 482.71118615 -198.49773959 480.86377822 -198.50050354 479.01637268 C-198.50188787 475.14187247 -198.48933217 471.26774223 -198.46655273 467.39331055 C-198.43830726 462.45642691 -198.44086705 457.52016429 -198.45364285 452.58323574 C-198.4606445 448.76447876 -198.4527576 444.94586195 -198.44038582 441.12712288 C-198.43590488 439.30888471 -198.43550477 437.4906313 -198.43945122 435.67239189 C-198.45884552 418.85972087 -196.69905655 404.04523222 -184.6875 391.125 C-173.74964438 381.09251498 -161.07848603 377.86057413 -146.57421875 377.88647461 C-145.88054703 377.88632858 -145.18687531 377.88618256 -144.47218323 377.8860321 C-142.21058879 377.88672115 -139.9490798 377.89446561 -137.6875 377.90234375 C-136.10709681 377.90421152 -134.52669304 377.90563373 -132.94628906 377.90663147 C-128.81010304 377.91042838 -124.67395277 377.92023418 -120.53778076 377.93133545 C-116.30774418 377.94161068 -112.07770175 377.94614212 -107.84765625 377.95117188 C-99.56508602 377.96185929 -91.2825516 377.97943284 -83 378 C-83 372.72 -83 367.44 -83 362 C-85.20816406 362.03480469 -87.41632813 362.06960938 -89.69140625 362.10546875 C-91.88597325 362.12902089 -94.08052493 362.1471476 -96.27514648 362.16479492 C-97.77325992 362.17966572 -99.2713316 362.19996866 -100.76928711 362.22631836 C-126.70490193 362.67033191 -149.77327127 355.05366938 -169 337 C-184.85943549 320.40895365 -194.4439289 299.60303069 -194.0703125 276.4921875 C-194.04710937 275.66976563 -194.02390625 274.84734375 -194 274 C-194.62455078 274.01571045 -195.24910156 274.0314209 -195.89257812 274.04760742 C-198.76162417 274.11052044 -201.63052442 274.14916731 -204.5 274.1875 C-205.97339844 274.22520508 -205.97339844 274.22520508 -207.4765625 274.26367188 C-216.91733191 274.35807957 -223.30676079 272.36933843 -230.3046875 265.82421875 C-237.06232925 258.55274709 -236.15817491 248.72051883 -236.16796875 239.44140625 C-236.17129715 238.33828598 -236.17462555 237.23516571 -236.17805481 236.09861755 C-236.18310198 233.77302465 -236.18546382 231.44742455 -236.18530273 229.12182617 C-236.18749053 225.57784031 -236.20567365 222.03416531 -236.22460938 218.49023438 C-236.22754355 216.22395939 -236.22952818 213.95768294 -236.23046875 211.69140625 C-236.23765427 210.63909317 -236.24483978 209.58678009 -236.25224304 208.50257874 C-236.22339073 199.14474845 -235.26801042 191.35773323 -228.39453125 184.3671875 C-221.22956363 177.8190714 -214.50190839 177.72487708 -205.125 177.875 C-204.05507812 177.88402344 -202.98515625 177.89304688 -201.8828125 177.90234375 C-199.25497561 177.92580658 -196.62760594 177.95863541 -194 178 C-194.04157227 177.17709473 -194.08314453 176.35418945 -194.12597656 175.50634766 C-195.04589061 153.67106504 -185.44117123 133.73881233 -171.375 117.5 C-158.14821826 103.38749627 -141.76837529 94.92671682 -123 91 C-122.09636719 90.80921875 -121.19273437 90.6184375 -120.26171875 90.421875 C-115.48693181 89.80429777 -110.74768485 89.73512559 -105.9375 89.6875 C-104.95716797 89.65849609 -103.97683594 89.62949219 -102.96679688 89.59960938 C-98.48811886 89.56008269 -95.75945494 89.56296397 -91.81640625 91.83203125 C-90 94 -90 94 -90 97 C-86.89420506 96.97720599 -83.79209516 96.89992181 -80.6875 96.8125 C-79.80642578 96.80669922 -78.92535156 96.80089844 -78.01757812 96.79492188 C-75.57841044 96.71145226 -73.36962293 96.5891138 -71 96 C-68.93752993 93.6493453 -68.93752993 93.6493453 -68 91 C-64.61606992 89.30803496 -60.77522209 89.88013451 -57.0546875 89.90234375 C-56.1696756 89.9037587 -55.2846637 89.90517365 -54.37283325 89.90663147 C-51.54018809 89.9122386 -48.70762136 89.92479229 -45.875 89.9375 C-43.95703239 89.94251408 -42.03906354 89.94707715 -40.12109375 89.95117188 C-35.41400782 89.96136037 -30.70709192 89.98093437 -26 90 C-26 80.43 -26 70.86 -26 61 C-27.65 60.67 -29.3 60.34 -31 60 C-39.69322437 56.08665141 -45.83210421 50.04742728 -49.9375 41.4375 C-52.69846573 32.82673813 -52.28174846 21.36024943 -48.38671875 13.2421875 C-43.4626192 5.28040401 -37.16501229 -0.5751596 -28.2109375 -3.60546875 C-18.80504159 -5.28390601 -8.26871545 -5.09952137 0 0 Z " fill="#010101" transform="translate(274,4)"/>
<path d="M0 0 C1.15373508 -0.00573832 1.15373508 -0.00573832 2.33077794 -0.01159257 C4.8984301 -0.02188017 7.46585685 -0.01793846 10.03352356 -0.01396179 C11.87860826 -0.01831074 13.72369115 -0.0234945 15.56877136 -0.02944946 C20.5752137 -0.04283427 25.58158051 -0.04341846 30.58803725 -0.04088616 C34.7726004 -0.03981563 38.95714832 -0.04470219 43.1417082 -0.04949158 C53.01955799 -0.06058601 62.89736977 -0.06102521 72.77522278 -0.05497742 C82.94986603 -0.04894339 93.1243708 -0.0612343 103.29899043 -0.08254749 C112.0457167 -0.10019285 120.79239902 -0.10616003 129.53914243 -0.10290974 C134.75801788 -0.10110067 139.97679465 -0.10369507 145.19565392 -0.11762428 C150.10818369 -0.13024498 155.02049869 -0.1282185 159.93302536 -0.11521339 C161.72963726 -0.1128569 163.52626448 -0.11554884 165.32285881 -0.12383652 C179.86065065 -0.18602882 191.12485842 0.63488546 202.08357239 11.07710266 C209.76001012 19.12760409 211.78252827 27.73416407 211.69490051 38.61030579 C211.70190979 39.6978566 211.70891907 40.78540741 211.71614075 41.90591431 C211.7336311 45.47235757 211.7221292 49.0379962 211.70857239 52.60444641 C211.71126986 55.09968721 211.7151544 57.59492697 211.72016907 60.09016418 C211.72680329 65.97478674 211.71287984 71.85912115 211.69156599 77.74370146 C211.67654872 82.42152059 211.68186383 87.09900304 211.69880676 91.77680969 C211.72205516 98.25288606 211.72560045 104.72863847 211.71258545 111.20474243 C211.7099271 113.6637988 211.71315635 116.12286914 211.72250366 118.58190918 C211.73272198 122.02533591 211.71709295 125.46773626 211.69490051 128.91108704 C211.70299744 129.91605728 211.71109436 130.92102753 211.71943665 131.95645142 C211.60274641 141.78567667 208.43373985 150.92214743 201.42732239 158.03804016 C193.51542774 165.34727096 186.26936905 168.41060903 175.55046082 168.40786743 C174.77822383 168.41154412 174.00598684 168.41522081 173.21034873 168.41900891 C170.6203944 168.43002966 168.03048023 168.43388688 165.44050598 168.43769836 C163.58424248 168.44396429 161.72798024 168.4506112 159.87171936 168.45761108 C153.77307507 168.47864052 147.67443056 168.48901319 141.57575989 168.49897766 C139.47471224 168.50302579 137.37366472 168.50714273 135.27261734 168.51132774 C125.40013667 168.53037783 115.52766346 168.54460863 105.65516794 168.55293971 C94.2675782 168.56270849 82.88018303 168.58901948 71.49266183 168.62944061 C62.68570206 168.65962644 53.87879797 168.67441098 45.07178748 168.67772073 C39.81429957 168.6800686 34.55701956 168.68899485 29.29958725 168.7141819 C24.35012372 168.7375104 19.40100426 168.7416766 14.45149994 168.73142052 C12.63994577 168.73092619 10.82837438 168.73721604 9.01687241 168.75097656 C-6.10725301 168.85938731 -16.46399197 166.42499401 -27.51017761 155.63569641 C-36.7541568 143.19404103 -35.5408702 129.52682035 -35.45158386 114.72163391 C-35.45241365 112.22925208 -35.45487718 109.73687031 -35.45889282 107.24449158 C-35.46174162 102.03813575 -35.44713651 96.83221231 -35.41960144 91.62593079 C-35.38548516 84.97040407 -35.39155759 78.31599002 -35.41026402 71.6603756 C-35.42085745 66.51977675 -35.41187531 61.37935568 -35.3968792 56.23877335 C-35.39171659 53.78530531 -35.3921557 51.33181857 -35.39842415 48.87835312 C-35.40390593 45.44468812 -35.38340595 42.01210862 -35.35612488 38.5785675 C-35.36265076 37.57673935 -35.36917664 36.57491119 -35.37590027 35.54272461 C-35.23096122 24.75351211 -31.59484111 17.20126398 -24.19377136 9.45991516 C-17.04657673 2.83080383 -9.78831117 -0.05207311 0 0 Z " fill="#F8F6F7" transform="translate(167.8226776123047,145.7393035888672)"/>
<path d="M0 0 C6.27 0 12.54 0 19 0 C19.99 1.98 20.98 3.96 22 6 C24.63688782 7.31844391 26.60081744 7.12769803 29.5549469 7.13130188 C31.32705536 7.13731415 31.32705536 7.13731415 33.13496399 7.14344788 C34.43822128 7.14291916 35.74147858 7.14239044 37.08422852 7.1418457 C38.46579093 7.14487691 39.84735234 7.14839826 41.22891235 7.15237427 C44.21089858 7.16027357 47.19287279 7.16541238 50.17486763 7.16866493 C54.90542872 7.17458198 59.6359148 7.19113428 64.36643982 7.21000671 C65.98815627 7.21634498 67.60987277 7.2226706 69.23158932 7.22898388 C70.04408921 7.23214969 70.85658911 7.2353155 71.69371021 7.23857725 C82.70619333 7.28055917 93.7186435 7.31355618 104.73120117 7.32592773 C112.15760072 7.33435632 119.58381621 7.35703146 127.01012367 7.3952834 C130.93372402 7.41490153 134.85705014 7.42749713 138.78070259 7.42244911 C170.25376426 7.38953411 170.25376426 7.38953411 184 12 C185.10320084 12.36752884 186.20640167 12.73505768 187.34303284 13.11372375 C207.13946806 20.1518309 219.66166898 35.85770782 228.5390625 54.17578125 C232.24943486 63.17194472 233.44636916 72.20741137 233.40405273 81.86450195 C233.41434761 83.54274048 233.41434761 83.54274048 233.42485046 85.25488281 C233.4429994 88.91614849 233.43929734 92.57698069 233.43359375 96.23828125 C233.43816169 98.80836626 233.44346907 101.37845006 233.44947815 103.9485321 C233.4583863 109.32210866 233.45625027 114.69552198 233.44604492 120.0690918 C233.43457996 126.24150052 233.44862657 132.41347388 233.4754414 138.58582526 C233.50044634 144.57020673 233.5027462 150.55436772 233.49632454 156.53880882 C233.49617218 159.06351635 233.50214472 161.58823259 233.51461601 164.11290932 C233.58421719 180.51277497 233.15502371 195.35404688 225.375 210.1875 C225.03436523 210.84693604 224.69373047 211.50637207 224.34277344 212.18579102 C214.87618359 229.78759837 198.98372154 241.35820774 180.1328125 247.45703125 C174.66423639 248.84921455 169.33706761 249.15020785 163.71743774 249.15390015 C162.48936513 249.16047353 162.48936513 249.16047353 161.23648298 249.1671797 C158.5009146 249.18050335 155.7653784 249.18673211 153.02978516 249.19287109 C151.0647365 249.20077734 149.09968928 249.20904662 147.13464355 249.21765137 C140.68613053 249.2438182 134.23761121 249.259177 127.7890625 249.2734375 C125.56370414 249.2788 123.33834581 249.28417751 121.11298752 249.28956985 C111.84987004 249.31119369 102.58675425 249.32992686 93.32361794 249.34119225 C80.07949212 249.35740848 66.8356607 249.39053569 53.59164584 249.44759309 C44.26311424 249.48640125 34.93466101 249.50583798 25.60605085 249.51111281 C20.04318838 249.51475229 14.48064029 249.52662333 8.91786575 249.55921555 C3.67611773 249.5894867 -1.5651288 249.59554055 -6.8069458 249.58383179 C-8.71919254 249.58361262 -10.63146386 249.59178619 -12.54362869 249.60948563 C-34.75509763 249.80370368 -52.4730844 243.42852708 -69 228 C-74.15920495 222.72081354 -77.86860187 216.82502701 -81.25 210.3125 C-81.56735107 209.71429443 -81.88470215 209.11608887 -82.21166992 208.49975586 C-89.8439533 193.0005039 -89.59426901 177.36812878 -89.53125 160.46875 C-89.53395033 157.90295261 -89.53783723 155.33715622 -89.54284668 152.7713623 C-89.5487162 147.41566193 -89.54065192 142.06023872 -89.52148438 136.70458984 C-89.49972384 130.55425499 -89.50677837 124.40445096 -89.52879 118.25412893 C-89.54928303 112.28416727 -89.54691885 106.31436729 -89.53526306 100.34437561 C-89.53261479 97.82804793 -89.53579777 95.31170648 -89.54518127 92.7953949 C-89.61747881 67.96509309 -85.81152002 47.53911479 -68 29 C-52.29222912 13.66741473 -32.47675331 7.48509709 -10.91723633 7.50219727 C-5.98520854 7.60434662 -5.98520854 7.60434662 -1.95703125 5.15625 C-0.91052433 2.89127658 -0.91052433 2.89127658 0 0 Z M-44 58 C-50.06499342 65.82625614 -51.30004355 73.1508549 -51.30639648 82.86376953 C-51.31472 83.94752365 -51.32304352 85.03127777 -51.33161926 86.14787292 C-51.35568799 89.72622285 -51.36448882 93.30439024 -51.37109375 96.8828125 C-51.38006425 99.378978 -51.38918617 101.87514296 -51.39845276 104.37130737 C-51.41493809 109.60496771 -51.4226745 114.83858373 -51.42553711 120.07226562 C-51.42876393 125.43019297 -51.44984924 130.78771047 -51.48706055 136.14550781 C-51.53141356 142.62993004 -51.55100489 149.11396725 -51.55226326 155.59853745 C-51.55645268 158.06155035 -51.56883516 160.5245642 -51.58978081 162.98749161 C-51.95355259 184.88339718 -51.95355259 184.88339718 -41.0234375 203.25 C-33.35454554 209.88255521 -25.27165415 213.31134641 -15.13262939 213.26742554 C-14.35868356 213.27195665 -13.58473772 213.27648776 -12.78733897 213.28115618 C-10.20354225 213.29377894 -7.61995689 213.29218119 -5.03613281 213.29052734 C-3.17957286 213.29651398 -1.32301539 213.30331984 0.53353882 213.31088257 C5.57089773 213.32853741 10.60818867 213.33323777 15.64557552 213.33451414 C18.7952107 213.33593675 21.94482864 213.34020846 25.09445953 213.34550858 C36.08967687 213.36400813 47.08484574 213.3721794 58.08007812 213.37060547 C68.31725946 213.36940454 78.5542298 213.39049755 88.79135776 213.4220928 C97.58987375 213.44827694 106.38832094 213.45897184 115.18687558 213.45769465 C120.43761441 213.45718559 125.68816576 213.46283788 130.93886566 213.48405075 C135.88016433 213.50346874 140.82109736 213.50353321 145.76240921 213.48901749 C147.57073376 213.48693261 149.3790814 213.49161102 151.18736649 213.5037384 C164.51152507 213.58727335 174.74619684 212.17566278 185 203 C191.15523109 196.56498568 195.10018639 189.2747147 195.14717102 180.2963562 C195.15432632 179.35450974 195.16148163 178.41266327 195.16885376 177.442276 C195.17154266 176.4157341 195.17423157 175.3891922 195.17700195 174.33154297 C195.18685875 172.70153099 195.18685875 172.70153099 195.19691467 171.03858948 C195.21663578 167.4397881 195.22830857 163.84102847 195.23828125 160.2421875 C195.24235678 159.01165775 195.2464323 157.78112801 195.25063133 156.51330948 C195.26933878 150.66990984 195.28390438 144.82652656 195.2922433 138.98310268 C195.30103118 132.92644371 195.32029356 126.87003593 195.35668945 120.81347656 C195.39517193 114.30547384 195.4139356 107.79769751 195.41844749 101.28958511 C195.42330896 98.81376023 195.4349103 96.33793877 195.45348549 93.8621788 C195.4779182 90.38946235 195.47690367 86.9176009 195.4699707 83.44482422 C195.48278076 82.4304277 195.49559082 81.41603119 195.50878906 80.37089539 C195.43070946 69.5900784 191.84125342 61.93883759 184.4296875 54.19921875 C176.52163977 47.04129131 167.43486645 44.68644224 156.93008423 44.73257446 C155.77272752 44.72577779 155.77272752 44.72577779 154.59198987 44.71884382 C152.02822387 44.70626837 149.46467217 44.7078157 146.90087891 44.70947266 C145.05387603 44.70348319 143.20687566 44.69667668 141.35987854 44.68911743 C136.35776078 44.67149461 131.3557115 44.66676367 126.35356569 44.66548586 C123.22502593 44.6640618 120.09650345 44.65978741 116.96796799 44.65449142 C106.04406381 44.63600471 95.12020836 44.62781927 84.19628906 44.62939453 C74.02836603 44.63059614 63.8606552 44.60948651 53.69278586 44.5779072 C44.94943072 44.55172389 36.20614482 44.54102807 27.46275079 44.54230535 C22.24669384 44.5428143 17.03082564 44.5371679 11.81480789 44.51594925 C6.90795448 44.49653181 2.00146927 44.49646639 -2.90539742 44.51098251 C-4.70082324 44.51306723 -6.49627233 44.50838992 -8.2916584 44.4962616 C-23.43236991 44.40064738 -33.36171572 46.53030451 -44 58 Z " fill="#88B8D2" transform="translate(184,101)"/>
<path d="M0 0 C1.16537692 -0.00256327 1.16537692 -0.00256327 2.3542968 -0.00517833 C4.94764742 -0.00846255 7.54073709 0.00251276 10.13406372 0.01345825 C11.99699396 0.0140226 13.85992464 0.01370535 15.72285461 0.01257324 C20.77403016 0.01199964 25.82511063 0.02375525 30.8762641 0.03772116 C36.15735231 0.05022719 41.43844272 0.05139892 46.71954346 0.05377197 C56.71729222 0.0599871 66.71499722 0.0763984 76.71272671 0.09647095 C88.09595633 0.11882889 99.47918804 0.12982312 110.86243415 0.13986182 C134.27608102 0.16076458 157.68968906 0.19594124 181.103302 0.24050903 C181.103302 0.57050903 181.103302 0.90050903 181.103302 1.24050903 C120.218302 1.73550903 120.218302 1.73550903 58.103302 2.24050903 C53.90240955 14.62732284 53.90240955 14.62732284 50.853302 27.17800903 C50.69345825 27.94951294 50.5336145 28.72101685 50.368927 29.51589966 C48.26566687 39.90074656 47.86296762 50.04956568 47.853302 60.61550903 C47.85229492 61.37684143 47.85128784 62.13817383 47.85025024 62.9225769 C47.86044495 74.30736632 48.45062359 85.14024527 51.103302 96.24050903 C51.39731215 97.58272926 51.69026687 98.92518107 51.98220825 100.26785278 C52.89160437 104.29830807 53.95221927 108.27273956 55.103302 112.24050903 C55.38633179 113.21890747 55.38633179 113.21890747 55.67507935 114.21707153 C58.47587559 123.57599757 62.39301971 132.24537352 66.853302 140.92800903 C67.31800903 141.84139038 67.78271606 142.75477173 68.26150513 143.6958313 C69.2190345 145.5063415 70.21898075 147.29512434 71.26220703 149.05764771 C73.103302 152.24050903 73.103302 152.24050903 74.81854248 155.81373596 C77.34952183 160.59139654 80.04707643 165.16031394 85.35726929 167.03715324 C92.16085079 168.31439224 99.06650449 167.99363331 105.9548645 167.82644653 C108.18259511 167.82276832 110.41034373 167.82527395 112.63806152 167.8336792 C118.47573922 167.83921328 124.30937303 167.76123822 130.14614868 167.66537476 C136.11217179 167.58232414 142.0781945 167.57890973 148.04470825 167.56863403 C159.73226337 167.53684747 171.41709473 167.41676567 183.103302 167.24050903 C183.103302 167.57050903 183.103302 167.90050903 183.103302 168.24050903 C158.5031239 168.33402028 133.9029725 168.40452159 109.30265236 168.44775772 C97.87985919 168.46836811 86.45717656 168.49645969 75.03445435 168.54226685 C65.07645161 168.58218112 55.11852895 168.60795292 45.16044843 168.61686301 C39.88947407 168.62206995 34.61872875 168.63427661 29.34782791 168.66342926 C24.38201803 168.6906708 19.41653058 168.69893636 14.45065308 168.69293976 C12.63264588 168.69403609 10.81462739 168.70193772 8.99668503 168.71733093 C-6.15349034 168.83927183 -16.5177018 166.42464485 -27.584198 155.61550903 C-36.82817719 143.17385365 -35.61489058 129.50663297 -35.52560425 114.70144653 C-35.52643404 112.2090647 -35.52889757 109.71668293 -35.53291321 107.2243042 C-35.53576201 102.01794837 -35.52115689 96.81202493 -35.49362183 91.60574341 C-35.45950554 84.95021669 -35.46557797 78.29580264 -35.4842844 71.64018822 C-35.49487784 66.49958937 -35.4858957 61.3591683 -35.47089958 56.21858597 C-35.46573697 53.76511794 -35.46617609 51.3116312 -35.47244453 48.85816574 C-35.47792631 45.42450074 -35.45742634 41.99192125 -35.43014526 38.55838013 C-35.43667114 37.55655197 -35.44319702 36.55472382 -35.44992065 35.52253723 C-35.3049816 24.73332473 -31.6688615 17.1810766 -24.26779175 9.43972778 C-17.09192282 2.78402069 -9.82622607 -0.07973744 0 0 Z " fill="#E4E0E3" transform="translate(167.89669799804688,145.75949096679688)"/>
<path d="M0 0 C1.63085353 -0.00486656 3.26170106 -0.01231556 4.89253235 -0.02212524 C9.28730538 -0.04080215 13.68117654 -0.02221559 18.07587862 0.00453901 C22.69295007 0.02731695 27.30998193 0.01894177 31.92709351 0.01504517 C39.6756651 0.01328423 47.42388508 0.03533851 55.17236328 0.07226562 C64.11119324 0.1146236 73.04950915 0.12161145 81.98841918 0.10914171 C90.61581575 0.09772607 99.24303263 0.10907702 107.87040329 0.1314888 C111.52966026 0.14074035 115.18880662 0.14254618 118.84807205 0.13831711 C123.16083059 0.13453096 127.47307091 0.15091321 131.78571129 0.1824379 C133.3618054 0.19087271 134.93795234 0.19265918 136.51405907 0.1870575 C148.37729728 0.15131066 157.82595422 1.44911347 166.71240234 9.81494141 C172.71168339 16.41548671 175.78737293 23.26277093 175.69335938 32.19702148 C175.69365143 32.92926941 175.69394348 33.66151733 175.69424438 34.41595459 C175.6928568 36.82381249 175.67732277 39.23135665 175.66162109 41.63916016 C175.65788893 43.31353079 175.65504292 44.98790362 175.65304565 46.66227722 C175.64542522 51.05994746 175.62579043 55.45748469 175.6036377 59.85510254 C175.57953923 65.1364848 175.57039071 70.41791164 175.55873108 75.69933319 C175.53936507 83.71452415 175.50103151 91.7294235 175.46630859 99.74462891 C162.26630859 99.74462891 149.06630859 99.74462891 135.46630859 99.74462891 C135.41023438 93.40824219 135.41023438 93.40824219 135.35302734 86.94384766 C135.3149246 83.57688996 135.27385181 80.20999769 135.2307663 76.8431015 C135.18609167 73.28824505 135.14665956 69.73350687 135.11987305 66.1784668 C135.08890234 62.0999635 135.03411254 58.02208346 134.97802734 53.94384766 C134.96844246 52.03124397 134.96844246 52.03124397 134.95866394 50.08000183 C134.93886978 48.89900406 134.91907562 47.71800629 134.89868164 46.5012207 C134.88757858 45.45975388 134.87647552 44.41828705 134.86503601 43.34526062 C134.39496221 40.27928426 133.90437356 39.58893385 131.46630859 37.74462891 C129.03756132 37.29002711 129.03756132 37.29002711 126.26635742 37.35694885 C125.18955719 37.34704422 124.11275696 37.33713959 123.00332642 37.32693481 C121.23123306 37.33368729 121.23123306 37.33368729 119.42333984 37.34057617 C118.17926361 37.33371292 116.93518738 37.32684967 115.65341187 37.31977844 C112.24008988 37.3045961 108.82731318 37.30302086 105.41399765 37.30872083 C102.56592482 37.31180785 99.71790163 37.30572576 96.86983585 37.29968208 C90.15227707 37.28562865 83.43484544 37.28720523 76.71728516 37.29858398 C69.78310594 37.31006997 62.84931326 37.29598368 55.91518497 37.26918751 C49.96435601 37.24705077 44.01364856 37.2403884 38.06278133 37.24626392 C34.50738711 37.24963915 30.95224077 37.2471812 27.3968811 37.23001289 C23.43419153 37.21171312 19.47197973 37.22571003 15.50927734 37.24291992 C14.32788177 37.23325195 13.14648621 37.22358398 11.92929077 37.21362305 C10.85249054 37.22345718 9.77569031 37.23329132 8.66625977 37.24342346 C7.72900558 37.24363275 6.7917514 37.24384203 5.82609558 37.24405766 C3.323187 37.54505832 3.323187 37.54505832 1.66623211 39.6082716 C0.11164438 42.37607705 0.06837593 44.35443403 0.03393555 47.52294922 C0.01414139 48.68385071 -0.00565277 49.8447522 -0.02604675 51.04083252 C-0.03563164 52.91288361 -0.03563164 52.91288361 -0.04541016 54.82275391 C-0.06336136 56.10446472 -0.08131256 57.38617554 -0.09980774 58.70672607 C-0.14725708 62.10639347 -0.17709868 65.50599473 -0.20324707 68.90588379 C-0.23307853 72.37830575 -0.2794391 75.85050452 -0.32470703 79.32275391 C-0.41224121 86.13006343 -0.47222626 92.93683407 -0.53369141 99.74462891 C-13.73369141 99.74462891 -26.93369141 99.74462891 -40.53369141 99.74462891 C-40.69412664 81.9675133 -40.69412664 81.9675133 -40.72900391 74.33251953 C-40.75282482 69.14265381 -40.78086537 63.95307299 -40.83544922 58.76342773 C-40.87922416 54.57477529 -40.90289456 50.38642879 -40.91320038 46.19756508 C-40.92053544 44.6073151 -40.93485765 43.01708 -40.95661163 41.4269619 C-41.09979336 30.5174043 -40.74660222 19.5076679 -33.03369141 10.93212891 C-23.36955532 1.34762279 -13.05871827 -0.13778044 0 0 Z " fill="#B3D1E1" transform="translate(186.53369140625,397.25537109375)"/>
<path d="M0 0 C1.88184005 -0.00570967 3.76367663 -0.01267623 5.64550781 -0.02079773 C10.7345195 -0.03868022 15.82335828 -0.03756976 20.9123919 -0.03185534 C25.17153344 -0.02875578 29.43064213 -0.03486462 33.68977898 -0.04089409 C43.74422311 -0.05492217 53.79858225 -0.05339287 63.85302734 -0.04199219 C74.20044141 -0.03051803 84.54759607 -0.04457883 94.89497596 -0.07138866 C103.80148266 -0.09359502 112.70790822 -0.10017177 121.61444062 -0.09431225 C126.92388923 -0.09095263 132.23317168 -0.09329115 137.54259682 -0.11056328 C142.53896458 -0.12610869 147.53495032 -0.12199305 152.53130341 -0.10325813 C154.35610319 -0.09959292 156.18093176 -0.10261977 158.00570488 -0.11314392 C175.28121312 -0.20510566 189.44855205 2.87566485 202.54174805 14.90405273 C212.64128736 25.4171165 216.6573613 38.2500072 216.64477539 52.54907227 C216.65149261 53.65087326 216.65820984 54.75267426 216.66513062 55.88786316 C216.68408638 59.5209101 216.68803401 63.15377195 216.69018555 66.78686523 C216.69661647 69.32404658 216.70334506 71.86122718 216.71035767 74.39840698 C216.72232536 79.71606462 216.72612505 85.03365386 216.72485352 90.35131836 C216.72365492 96.46741064 216.74470731 102.58314844 216.77634084 108.69915116 C216.80582416 114.61353937 216.81282466 120.52782128 216.81163406 126.44228745 C216.81398281 128.94353555 216.82276501 131.44478673 216.8382988 133.9459877 C216.95019923 153.82977792 215.81645596 169.49019763 201.54174805 184.71655273 C188.21685541 197.19906711 172.88109239 199.0071556 155.4597168 198.92163086 C153.58728494 198.92706189 151.71485736 198.93419001 149.84243774 198.94287109 C144.79280085 198.96099078 139.74349358 198.95408413 134.69385147 198.94135475 C129.38817766 198.93116789 124.08253049 198.94063613 118.77685547 198.94689941 C109.86998472 198.95415934 100.963247 198.94463165 92.05639648 198.92553711 C81.78559424 198.90377162 71.5151097 198.91082416 61.24431515 198.93284273 C52.39718644 198.95104399 43.55015291 198.953532 34.70301151 198.94308805 C29.43162396 198.93687905 24.16038532 198.93594566 18.88900757 198.94923401 C13.93115883 198.9608609 8.97371635 198.95264281 4.0159111 198.92965698 C2.20562792 198.92440622 0.39531003 198.9258207 -1.41495895 198.93470764 C-18.74279583 199.01187541 -32.89783072 195.83569764 -45.95825195 183.59155273 C-60.47114221 168.09926498 -60.25234814 150.4040951 -60.17700195 130.40014648 C-60.17970103 127.8691442 -60.1835869 125.33814293 -60.18859863 122.80714417 C-60.19447294 117.52108765 -60.18638549 112.23523497 -60.16723633 106.94921875 C-60.1454632 100.86930058 -60.15253677 94.78991906 -60.17454195 88.71001381 C-60.19499598 82.81905096 -60.19268577 76.92828932 -60.18101501 71.03730965 C-60.17836098 68.54920436 -60.18157049 66.06108522 -60.19093323 63.57299614 C-60.20117529 60.08720292 -60.18549033 56.602418 -60.16333008 53.11669922 C-60.171427 52.10493118 -60.17952393 51.09316315 -60.18786621 50.05073547 C-60.03014291 36.55201522 -54.69172141 24.53429942 -45.52075195 14.71655273 C-31.98211392 1.86053511 -17.81411367 -0.048889 0 0 Z M-37.64575195 28.40405273 C-43.71074537 36.23030888 -44.9457955 43.55490763 -44.95214844 53.26782227 C-44.96047195 54.35157639 -44.96879547 55.43533051 -44.97737122 56.55192566 C-45.00143995 60.13027558 -45.01024077 63.70844297 -45.0168457 67.28686523 C-45.0258162 69.78303073 -45.03493812 72.27919569 -45.04420471 74.77536011 C-45.06069004 80.00902044 -45.06842645 85.24263646 -45.07128906 90.47631836 C-45.07451588 95.83424571 -45.09560119 101.19176321 -45.1328125 106.54956055 C-45.17716551 113.03398277 -45.19675684 119.51801999 -45.19801521 126.00259018 C-45.20220463 128.46560309 -45.21458711 130.92861694 -45.23553276 133.39154434 C-45.59930455 155.28744991 -45.59930455 155.28744991 -34.66918945 173.65405273 C-27.0002975 180.28660794 -18.9174061 183.71539914 -8.77838135 183.67147827 C-8.00443551 183.67600938 -7.23048967 183.6805405 -6.43309093 183.68520892 C-3.8492942 183.69783167 -1.26570884 183.69623392 1.31811523 183.69458008 C3.17467519 183.70056671 5.03123266 183.70737257 6.88778687 183.7149353 C11.92514577 183.73259014 16.96243671 183.73729051 21.99982357 183.73856688 C25.14945874 183.73998948 28.29907669 183.7442612 31.44870758 183.74956131 C42.44392492 183.76806086 53.43909379 183.77623214 64.43432617 183.7746582 C74.67150751 183.77345728 84.90847785 183.79455028 95.1456058 183.82614553 C103.9441218 183.85232967 112.74256898 183.86302458 121.54112363 183.86174738 C126.79186246 183.86123832 132.0424138 183.86689062 137.29311371 183.88810349 C142.23441238 183.90752148 147.17534541 183.90758595 152.11665726 183.89307022 C153.9249818 183.89098535 155.73332945 183.89566376 157.54161453 183.90779114 C170.86577312 183.99132608 181.10044489 182.57971552 191.35424805 173.40405273 C197.50947914 166.96903841 201.45443444 159.67876744 201.50141907 150.70040894 C201.50857437 149.75856247 201.51572968 148.816716 201.52310181 147.84632874 C201.52579071 146.81978683 201.52847961 145.79324493 201.53125 144.7355957 C201.5411068 143.10558372 201.5411068 143.10558372 201.55116272 141.44264221 C201.57088383 137.84384084 201.58255662 134.2450812 201.5925293 130.64624023 C201.59660482 129.41571049 201.60068035 128.18518074 201.60487938 126.91736221 C201.62358682 121.07396258 201.63815243 115.23057929 201.64649135 109.38715541 C201.65527922 103.33049645 201.6745416 97.27408867 201.7109375 91.2175293 C201.74941997 84.70952657 201.76818365 78.20175024 201.77269554 71.69363785 C201.77755701 69.21781297 201.78915835 66.74199151 201.80773354 64.26623154 C201.83216624 60.79351508 201.83115171 57.32165364 201.82421875 53.84887695 C201.83702881 52.83448044 201.84983887 51.82008392 201.86303711 50.77494812 C201.78495751 39.99413113 198.19550147 32.34289032 190.78393555 24.60327148 C182.87588782 17.44534404 173.78911449 15.09049498 163.28433228 15.1366272 C162.12697557 15.12983053 162.12697557 15.12983053 160.94623792 15.12289655 C158.38247192 15.1103211 155.81892022 15.11186844 153.25512695 15.11352539 C151.40812408 15.10753592 149.5611237 15.10072942 147.71412659 15.09317017 C142.71200882 15.07554734 137.70995955 15.0708164 132.70781374 15.06953859 C129.57927398 15.06811453 126.45075149 15.06384015 123.32221603 15.05854416 C112.39831186 15.04005745 101.47445641 15.031872 90.55053711 15.03344727 C80.38261408 15.03464887 70.21490324 15.01353924 60.04703391 14.98195994 C51.30367877 14.95577662 42.56039287 14.94508081 33.81699884 14.94635808 C28.60094188 14.94686703 23.38507369 14.94122064 18.16905594 14.92000198 C13.26220253 14.90058454 8.35571732 14.90051912 3.44885063 14.91503525 C1.65342481 14.91711996 -0.14202428 14.91244265 -1.93741035 14.90031433 C-17.07812186 14.80470012 -27.00746767 16.93435725 -37.64575195 28.40405273 Z " fill="#010102" transform="translate(177.645751953125,130.595947265625)"/>
<path d="M0 0 C1.06582306 -0.00905365 2.13164612 -0.0181073 3.22976685 -0.0274353 C6.7578895 -0.04806463 10.28352006 -0.01788384 13.81152344 0.01464844 C16.27472 0.01501238 18.73791796 0.01300299 21.20111084 0.00872803 C26.37301817 0.00743204 31.54407809 0.03044158 36.71582031 0.07128906 C43.30254447 0.12204172 49.88791742 0.12024602 56.47476578 0.1006813 C61.56939132 0.09030761 66.66371424 0.10491564 71.75829315 0.12706757 C74.18363849 0.13536312 76.60901725 0.13696569 79.03437042 0.13141632 C102.96875624 0.10807453 122.28230451 3.99048873 140.42089844 20.87402344 C159.40919998 40.55972503 162.04981209 62.21547694 161.95214844 88.40527344 C161.95484877 90.97107083 161.95873567 93.53686721 161.96374512 96.10266113 C161.96961463 101.45836151 161.96155036 106.81378472 161.94238281 112.16943359 C161.92062228 118.31976845 161.9276768 124.46957248 161.94968843 130.6198945 C161.97018147 136.58985617 161.96781729 142.55965615 161.9561615 148.52964783 C161.95351323 151.04597551 161.9566962 153.56231696 161.96607971 156.07862854 C162.01370845 172.4365289 161.55545443 187.26709423 153.79589844 202.06152344 C153.45526367 202.72095947 153.11462891 203.38039551 152.76367188 204.05981445 C143.29708203 221.66162181 127.40461998 233.23223117 108.55371094 239.33105469 C103.65595206 240.57792004 98.85357789 241.02454835 93.81152344 241.16210938 C92.51577393 241.19753845 91.22002441 241.23296753 89.88500977 241.26947021 C84.73926845 241.38458177 79.59300083 241.46590227 74.44633484 241.52608871 C70.55369421 241.57214677 66.66408786 241.63933282 62.77294922 241.75878906 C32.76278951 242.65758036 32.76278951 242.65758036 24.55761719 235.57714844 C22.68022344 233.75729961 21.08919613 231.90468334 19.42089844 229.87402344 C18.03717709 228.52812459 16.64444491 227.1912464 15.23339844 225.87402344 C14.29061584 224.87900222 13.35256608 223.87945949 12.42089844 222.87402344 C11.42297799 221.8719482 10.42322752 220.87168892 9.42089844 219.87402344 C10.47753189 219.87259842 11.53416534 219.8711734 12.62281799 219.8697052 C22.64004693 219.85294733 32.65687419 219.80990761 42.67389011 219.74193287 C47.82228341 219.70781934 52.97038488 219.68257738 58.11889648 219.6784668 C63.09885349 219.67415008 68.07815394 219.64541104 73.0579052 219.60059166 C74.94619848 219.58772357 76.83457077 219.58327048 78.7229023 219.58786964 C95.99794634 219.62010786 110.59049452 217.14951266 123.63183594 204.77636719 C133.88958952 193.96568637 137.88963899 181.0373736 137.82495117 166.37255859 C137.83181442 165.26871323 137.83867767 164.16486786 137.8457489 163.02757263 C137.86393721 159.4059434 137.86019039 155.78475071 137.85449219 152.16308594 C137.85905797 149.62779603 137.86436472 147.09250735 137.87037659 144.55722046 C137.87929224 139.25325907 137.87713877 133.94945438 137.86694336 128.64550781 C137.85547198 122.54351598 137.86953247 116.44196419 137.89633983 110.34003031 C137.92129715 104.43469211 137.9236528 98.52948883 137.91722298 92.62409592 C137.91707029 90.12761071 137.92307071 87.63111682 137.93551445 85.13466263 C137.9505054 81.63420787 137.93968671 78.13470375 137.92260742 74.63427734 C137.93227539 73.61779617 137.94194336 72.601315 137.9519043 71.55403137 C137.81448743 58.00436211 132.43454898 46.02285105 123.29589844 36.12402344 C112.57415692 25.9248542 98.7512667 22.4224728 84.36181641 22.44165039 C83.19968124 22.43145874 82.03754608 22.42126709 80.8401947 22.4107666 C77.03110852 22.38077528 73.2222744 22.37139161 69.41308594 22.36230469 C66.75935102 22.34544772 64.10564878 22.32743983 61.45193481 22.3079071 C55.20137597 22.26440688 48.95084287 22.2357592 42.70017922 22.21258372 C35.57787832 22.18544311 28.45571072 22.1415375 21.33350539 22.096295 C6.69604808 22.00368513 -7.94146617 21.93189667 -22.57910156 21.87402344 C-21.52436591 19.68248337 -20.46063894 17.49607809 -19.39160156 15.31152344 C-19.09962891 14.70244141 -18.80765625 14.09335938 -18.50683594 13.46582031 C-17.57616652 11.57445988 -16.58723249 9.72513848 -15.57910156 7.87402344 C-15.25501438 7.21530117 -14.9309272 6.5565789 -14.5970192 5.87789536 C-11.0353431 -0.34798082 -6.72934209 -0.11619446 0 0 Z " fill="#B3D0E0" transform="translate(255.5791015625,109.1259765625)"/>
<path d="M0 0 C1.70919288 0.01121609 3.4184053 0.01974485 5.12762451 0.02572632 C9.58651717 0.04843541 14.0442028 0.10719865 18.50262451 0.1739502 C23.06798991 0.23576425 27.63355386 0.26282411 32.19921875 0.29296875 C41.12812918 0.35696372 50.05615101 0.45911995 58.984375 0.5859375 C58.36961745 3.71307899 57.6953201 6.77678881 56.828125 9.84375 C56.50134766 11.03097656 56.50134766 11.03097656 56.16796875 12.2421875 C55.71826414 13.86626357 55.26269196 15.48872827 54.80078125 17.109375 C53.06774595 23.46725597 52.60155123 28.79699897 51.984375 35.5859375 C77.064375 35.5859375 102.144375 35.5859375 127.984375 35.5859375 C127.984375 35.9159375 127.984375 36.2459375 127.984375 36.5859375 C127.33777011 36.58740406 126.69116522 36.58887062 126.02496624 36.59038162 C110.30140682 36.62741157 94.5781065 36.68637517 78.85473156 36.76984024 C71.2510511 36.80967262 63.64747476 36.84204366 56.04370117 36.85693359 C49.41727923 36.86992849 42.79108599 36.89683732 36.16479284 36.94055057 C32.65521141 36.96321459 29.14591256 36.97884526 25.63625145 36.97782135 C21.72105001 36.97693956 17.80642802 37.00711802 13.89135742 37.04003906 C12.7239502 37.0350087 11.55654297 37.02997833 10.35375977 37.02479553 C9.28945236 37.03870834 8.22514496 37.05262115 7.12858582 37.06695557 C6.20218387 37.07064274 5.27578192 37.07432991 4.32130718 37.07812881 C1.8391907 37.39054322 1.8391907 37.39054322 0.18778229 39.45069122 C-1.37184367 42.21798834 -1.41353728 44.19386753 -1.44799805 47.36425781 C-1.46779221 48.5251593 -1.48758636 49.68606079 -1.50798035 50.88214111 C-1.51756523 52.7541922 -1.51756523 52.7541922 -1.52734375 54.6640625 C-1.54529495 55.94577332 -1.56324615 57.22748413 -1.58174133 58.54803467 C-1.62919068 61.94770206 -1.65903228 65.34730332 -1.68518066 68.74719238 C-1.71501212 72.21961434 -1.76137269 75.69181312 -1.80664062 79.1640625 C-1.89417481 85.97137203 -1.95415985 92.77814266 -2.015625 99.5859375 C-15.215625 99.5859375 -28.415625 99.5859375 -42.015625 99.5859375 C-42.17606024 81.8088219 -42.17606024 81.8088219 -42.2109375 74.17382812 C-42.23475842 68.9839624 -42.26279897 63.79438159 -42.31738281 58.60473633 C-42.36115775 54.41608389 -42.38482815 50.22773739 -42.39513397 46.03887367 C-42.40246904 44.44862369 -42.41679125 42.85838859 -42.43854523 41.26827049 C-42.58172695 30.35871289 -42.22853581 19.3489765 -34.515625 10.7734375 C-24.18277561 0.55796116 -13.70452476 -0.26696635 0 0 Z " fill="#88B8D2" transform="translate(188.015625,397.4140625)"/>
<path d="M0 0 C34.98 0 69.96 0 106 0 C106 15.84 106 31.68 106 48 C71.02 48 36.04 48 0 48 C0 32.16 0 16.32 0 0 Z " fill="#FEEFAD" transform="translate(201,449)"/>
<path d="M0 0 C4.12475481 -0.11751438 8.24907118 -0.18768824 12.375 -0.25 C13.53128906 -0.28351563 14.68757813 -0.31703125 15.87890625 -0.3515625 C26.96107554 -0.47678475 34.91586136 2.04145722 43.01953125 9.71484375 C50.67149751 18.54403559 51.17540402 28.11007679 51.51757812 39.2265625 C51.55173828 40.0515625 51.58589844 40.8765625 51.62109375 41.7265625 C51.6461499 42.47502441 51.67120605 43.22348633 51.69702148 43.99462891 C51.90227047 46.31293105 51.90227047 46.31293105 54 49 C55.65 49.66 57.3 50.32 59 51 C59 57.27 59 63.54 59 70 C57.02 70.99 55.04 71.98 53 73 C51.71394339 75.57211322 51.78956059 77.56906966 51.68359375 80.4453125 C51.64548584 81.41484863 51.60737793 82.38438477 51.56811523 83.38330078 C51.52501221 84.61806152 51.48190918 85.85282227 51.4375 87.125 C51.293125 91.04375 51.14875 94.9625 51 99 C37.8 99 24.6 99 11 99 C10.97421875 93.65296875 10.9484375 88.3059375 10.921875 82.796875 C10.89667705 79.38797443 10.87032157 75.97916001 10.83984375 72.5703125 C10.79168905 67.17219843 10.74757719 61.77428405 10.72900391 56.37597656 C10.71374165 52.01851687 10.67912925 47.66158337 10.63169098 43.30435944 C10.61697504 41.65083671 10.60896467 39.99723881 10.60811615 38.34365082 C10.59470091 25.29644053 9.1765405 14.56037404 1.171875 3.7421875 C0 2 0 2 0 0 Z " fill="#6BAAC8" transform="translate(366,398)"/>
<path d="M0 0 C1.29486328 0.01804687 2.58972656 0.03609375 3.92382812 0.0546875 C7.09583414 0.10150678 10.26626704 0.16707527 13.4375 0.25 C12.62345703 1.57451172 12.62345703 1.57451172 11.79296875 2.92578125 C11.06962771 4.13761234 10.34701081 5.34987588 9.625 6.5625 C9.26857422 7.13806641 8.91214844 7.71363281 8.54492188 8.30664062 C2.20605502 19.06526786 1.97308472 30.37653747 1.92578125 42.51171875 C1.90890278 44.15510878 1.89074837 45.79848614 1.87138367 47.44184875 C1.82422097 51.73082521 1.79419482 56.01975032 1.76794434 60.30889893 C1.73268028 65.47460369 1.67576518 70.64011139 1.62255096 75.80565643 C1.54443333 83.62041126 1.49352904 91.4349152 1.4375 99.25 C-11.4325 99.25 -24.3025 99.25 -37.5625 99.25 C-37.80315286 80.76429543 -37.80315286 80.76429543 -37.85546875 72.8203125 C-37.89119081 67.42183581 -37.93322213 62.02397578 -38.01513672 56.62597656 C-38.08083655 52.26870263 -38.11631134 47.91209087 -38.13176346 43.55435944 C-38.14275992 41.900684 -38.16423151 40.24704049 -38.19688034 38.59365082 C-38.41138009 27.26977291 -37.52629141 17.90586005 -29.56674194 9.02264404 C-20.8542594 0.52164018 -11.75968555 -0.31278959 0 0 Z " fill="#6BAAC9" transform="translate(129.5625,397.75)"/>
<path d="M0 0 C3.5 0.5625 3.5 0.5625 5.6953125 2.03515625 C8.36858885 5.7789004 8.0110895 9.07870904 7.875 13.5625 C7.87371094 14.36945313 7.87242187 15.17640625 7.87109375 16.0078125 C7.80972574 20.13992541 7.56124059 22.9026414 5.5 26.5625 C6.13228516 27.35914063 6.13228516 27.35914063 6.77734375 28.171875 C7.59912109 29.23148438 7.59912109 29.23148438 8.4375 30.3125 C8.98277344 31.00859375 9.52804688 31.7046875 10.08984375 32.421875 C13.05919255 36.92936293 13.33392034 42.32188295 12.5 47.5625 C9.52126205 55.12303716 4.7405411 59.99049972 -2.5 63.5625 C-10.92196022 67.01766317 -21.46103762 67.08502519 -30.1328125 64.46484375 C-37.05515568 61.21186293 -42.32453597 57.16269997 -45.625 50.18359375 C-47.29249783 45.18854444 -47.42649418 39.59999357 -45.8828125 34.5390625 C-41.86859318 26.68824418 -34.56145908 21.87396582 -26.37890625 19.2109375 C-19.9894564 17.77179411 -13.85358635 18.16197828 -7.5 19.5625 C-7.54640625 18.60988281 -7.5928125 17.65726563 -7.640625 16.67578125 C-7.67671875 15.42152344 -7.7128125 14.16726562 -7.75 12.875 C-7.79640625 11.63363281 -7.8428125 10.39226562 -7.890625 9.11328125 C-7.29275861 3.67867578 -5.48570626 0.88163136 0 0 Z " fill="#E79FA9" transform="translate(192.5,197.4375)"/>
<path d="M0 0 C3.00259727 2.83223714 3.9354262 4.41302414 4.390625 8.55078125 C4.32101562 10.41283203 4.32101562 10.41283203 4.25 12.3125 C4.21390625 13.56675781 4.1778125 14.82101563 4.140625 16.11328125 C4.07101562 17.54220703 4.07101562 17.54220703 4 19 C4.55558594 18.84144531 5.11117188 18.68289062 5.68359375 18.51953125 C15.74510593 16.26290204 24.57642632 18.98690351 33.375 23.875 C38.10402719 27.70326011 42.5027497 32.27640471 43.3359375 38.515625 C43.44111945 45.87836136 42.48415875 51.10965694 37.4921875 56.68359375 C35.74898275 58.30923353 33.97029446 59.66004119 32 61 C31.41089844 61.41507812 30.82179688 61.83015625 30.21484375 62.2578125 C22.57193503 66.60348227 12.48104831 66.19196081 4 65 C-4.85635677 62.34496932 -10.79756816 57.53147318 -15.375 49.625 C-17.00594017 42.77505127 -16.31049294 37.26629021 -13 31 C-11.72943083 28.94158687 -10.39829935 26.97690598 -9 25 C-9.66 24.01 -10.32 23.02 -11 22 C-11.44634955 19.03571385 -11.3702657 16.05694661 -11.375 13.0625 C-11.39949219 12.25103516 -11.42398437 11.43957031 -11.44921875 10.60351562 C-11.46817908 6.75140917 -11.47715582 4.66925752 -9.1953125 1.46875 C-5.94410455 -0.70643539 -3.81547616 -0.61320153 0 0 Z " fill="#E79FA9" transform="translate(323,198)"/>
<path d="M0 0 C12.87 0 25.74 0 39 0 C39.99 6.27 40.98 12.54 42 19 C42.87438495 22.3064174 43.7113329 25.32979342 44.875 28.5 C45.22111328 29.5209375 45.22111328 29.5209375 45.57421875 30.5625 C47.67841265 36.59377236 50.33293399 42.13245478 53 48 C35.51 48 18.02 48 0 48 C0 32.16 0 16.32 0 0 Z " fill="#FCE77C" transform="translate(201,449)"/>
<path d="M0 0 C32.34 0 64.68 0 98 0 C98 5.94 98 11.88 98 18 C65.66 18 33.32 18 0 18 C0 12.06 0 6.12 0 0 Z " fill="#68A5C3" transform="translate(207,365)"/>
<path d="M0 0 C7.26 0 14.52 0 22 0 C26.50114233 4.50114233 26.50114233 4.50114233 26.51757812 9.42358398 C26.53018677 10.50828476 26.54279541 11.59298553 26.55578613 12.71055603 C26.54768921 13.87728348 26.53959229 15.04401093 26.53125 16.24609375 C26.5350769 17.44935806 26.53890381 18.65262238 26.54284668 19.89234924 C26.54556845 22.43678626 26.53818887 24.98125113 26.52148438 27.52563477 C26.50009931 31.41941826 26.52126972 35.31135249 26.546875 39.20507812 C26.54423141 41.67708741 26.53910578 44.14909554 26.53125 46.62109375 C26.53934692 47.78579697 26.54744385 48.95050018 26.55578613 50.15049744 C26.54317749 51.23835037 26.53056885 52.32620331 26.51757812 53.44702148 C26.51280457 54.87787331 26.51280457 54.87787331 26.50793457 56.33763123 C26 59 26 59 22 64 C14.74 64 7.48 64 0 64 C0 42.88 0 21.76 0 0 Z " fill="#FC7F86" transform="translate(432,198)"/>
<path d="M0 0 C7.26 0 14.52 0 22 0 C22 21.12 22 42.24 22 64 C14.74 64 7.48 64 0 64 C-4.50114233 58.37357208 -4.50114233 58.37357208 -4.51757812 53.44702148 C-4.53018677 52.35916855 -4.54279541 51.27131561 -4.55578613 50.15049744 C-4.54768921 48.98579422 -4.53959229 47.821091 -4.53125 46.62109375 C-4.5350769 45.41687271 -4.53890381 44.21265167 -4.54284668 42.97193909 C-4.54556582 40.42928225 -4.53820462 37.88659745 -4.52148438 35.34399414 C-4.50005829 31.448098 -4.52129787 27.55404227 -4.546875 23.65820312 C-4.54423209 21.18749592 -4.53910789 18.71678987 -4.53125 16.24609375 C-4.53934692 15.0793663 -4.54744385 13.91263885 -4.55578613 12.71055603 C-4.54317749 11.62585526 -4.53056885 10.54115448 -4.51757812 9.42358398 C-4.51439575 8.47047836 -4.51121338 7.51737274 -4.50793457 6.53538513 C-4 4 -4 4 0 0 Z " fill="#FD636E" transform="translate(58,198)"/>
<path d="M0 0 C5.11218173 2.8304735 8.64484144 6.67983778 10.76171875 12.1484375 C11.76226561 17.82461681 10.96359202 22.29042289 7.76171875 27.1484375 C3.42664461 32.32644272 -1.05699603 34.81356537 -7.80078125 35.5234375 C-14.15939242 34.82977083 -18.17066061 31.98560799 -22.23828125 27.1484375 C-24.9005339 22.28294127 -26.3340007 17.66917782 -25.23828125 12.1484375 C-23.05924794 6.70085423 -19.60037512 2.8369132 -14.4765625 0 C-9.57473664 -1.86491804 -4.90182586 -1.86491804 0 0 Z " fill="#F8EBAA" transform="translate(263.23828125,15.8515625)"/>
<path d="M0 0 C0.87269531 -0.0038269 1.74539062 -0.00765381 2.64453125 -0.01159668 C4.48699092 -0.0143149 6.32948924 -0.00695994 8.171875 0.00976562 C10.99045934 0.03117752 13.80649485 0.00996199 16.625 -0.015625 C18.41667229 -0.01298171 20.20834299 -0.00785669 22 0 C22.84175781 -0.00809692 23.68351562 -0.01619385 24.55078125 -0.02453613 C30.36780689 0.06858626 30.36780689 0.06858626 33.52734375 2.38085938 C35.57516513 5.37111313 35.65255613 6.97844439 35 10.53125 C33.01788448 13.16259563 31.4148302 15.17909962 28.11450195 16.00054932 C25.85364775 16.19264933 23.64385726 16.22439077 21.375 16.1953125 C20.1382251 16.20248795 20.1382251 16.20248795 18.87646484 16.20980835 C17.13832687 16.21320122 15.40012456 16.20404153 13.66210938 16.18310547 C11.00766175 16.15632729 8.35744175 16.18286996 5.703125 16.21484375 C4.01040737 16.21153954 2.31769237 16.20513306 0.625 16.1953125 C-0.16471191 16.20543365 -0.95442383 16.21555481 -1.76806641 16.22598267 C-5.9765724 16.13686284 -7.57117758 15.86673802 -11.00390625 13.18115234 C-13 10.53125 -13 10.53125 -13.5625 7.46875 C-12.09340234 -0.20320443 -6.56647455 -0.06316335 0 0 Z " fill="#040404" transform="translate(245,214.46875)"/>
<path d="M0 0 C3.5 0.5625 3.5 0.5625 5.6875 2.03515625 C8.36846477 5.77348428 8.08605034 9.07354076 8 13.5625 C8.01546875 14.36945313 8.0309375 15.17640625 8.046875 16.0078125 C8.02159961 19.8370336 7.96201833 21.91826323 5.6875 25.08984375 C2.44276156 27.27424802 0.31396909 27.17545932 -3.5 26.5625 C-6.60414451 23.67453698 -7.44137863 21.98319452 -8.03125 17.75 C-8.04178458 16.35416755 -8.03089735 14.95803021 -8 13.5625 C-8.02320313 12.51449219 -8.02320313 12.51449219 -8.046875 11.4453125 C-8.01964383 7.83718213 -7.57921805 5.69208298 -5.6875 2.59765625 C-3.5 0.5625 -3.5 0.5625 0 0 Z " fill="#040404" transform="translate(192.5,197.4375)"/>
<path d="M0 0 C3.10414451 2.88796302 3.94137863 4.57930548 4.53125 8.8125 C4.54178458 10.20833245 4.53089735 11.60446979 4.5 13 C4.51546875 13.69867188 4.5309375 14.39734375 4.546875 15.1171875 C4.51964383 18.72531787 4.07921805 20.87041702 2.1875 23.96484375 C0 26 0 26 -3.5 26.5625 C-7 26 -7 26 -9.1875 24.52734375 C-11.86846477 20.78901572 -11.58605034 17.48895924 -11.5 13 C-11.51546875 12.19304687 -11.5309375 11.38609375 -11.546875 10.5546875 C-11.52159961 6.7254664 -11.46201833 4.64423677 -9.1875 1.47265625 C-5.94276156 -0.71174802 -3.81396909 -0.61295932 0 0 Z " fill="#040404" transform="translate(323,198)"/>
</svg>
